# xmcd
#
# Track frame offsets: 
#        150
#        17251
#        30228
#        47095
#        64534
#        75884
#        94582
#        108764
#        112300
#        129846
#        143422
#        164469
#        178282
#        186215
#        208345
#        218688
#        240665
#        251786
#        285465
#        317109
#
# Disc length: 4770 seconds
#
# Revision: 2
# Processed by: cddbd v1.5.2PL0 Copyright (c) Steve Scherf et al.
# Submitted via: ExactAudioCopy v1.0b3
#
DISCID=0a12a014
DTITLE=Гражданская Оборона - Зачем Снятся Сны
DYEAR=2007
DGENRE=Psychedelic Garage Rock
TTITLE0=Слава Психонавтам
TTITLE1=Кто-то Другой
TTITLE2=Фейерверк
TTITLE3=Значит, Ураган
TTITLE4=Сияние
TTITLE5=Танец Для Мёртвых
TTITLE6=Куда Мы Есть
TTITLE7=Упадок
TTITLE8=Где
TTITLE9=Потрясающий Вид Из Окна
TTITLE10=Калейдоскоп
TTITLE11=К Тебе
TTITLE12=Я Чувствую Себя Не В Своих Штанах
TTITLE13=Всё Это С Тобой
TTITLE14=Резвые
TTITLE15=Снаружи Всех Измерений
TTITLE16=Кролики
TTITLE17=Ночью
TTITLE18=Осень
TTITLE19=data
EXTD=
EXTT0=
EXTT1=
EXTT2=
EXTT3=
EXTT4=
EXTT5=
EXTT6=
EXTT7=
EXTT8=
EXTT9=
EXTT10=
EXTT11=
EXTT12=
EXTT13=
EXTT14=
EXTT15=
EXTT16=
EXTT17=
EXTT18=
EXTT19=
PLAYORDER=
